<svg xmlns:dc="http://purl.org/dc/elements/1.1/" xmlns:cc="http://creativecommons.org/ns#" xmlns:rdf="http://www.w3.org/1999/02/22-rdf-syntax-ns#" xmlns:svg="http://www.w3.org/2000/svg" xmlns="http://www.w3.org/2000/svg" xmlns:xlink="http://www.w3.org/1999/xlink" id="svg117111" viewBox="0 0 1024 768" height="768px" width="1024px" version="1.1">
  <metadata id="metadata117117">
    <rdf:rdf>
      <cc:work rdf:about="">
        <dc:format>image/svg+xml</dc:format>
        <dc:type rdf:resource="http://purl.org/dc/dcmitype/StillImage"></dc:type>
      </cc:work>
    </rdf:rdf>
  </metadata>
  <defs id="defs117115"></defs>
  <linearGradient spreadMethod="pad" y2="30%" x2="-10%" y1="120%" x1="30%" id="3d_gradient2-logo-b9fda797-9a39-458e-b729-8f50a77a8257">
    <stop id="stop117092" stop-opacity="1" stop-color="#ffffff" offset="0%"></stop>
    <stop id="stop117094" stop-opacity="1" stop-color="#000000" offset="100%"></stop>
  </linearGradient>
  <linearGradient gradientTransform="rotate(-30)" spreadMethod="pad" y2="30%" x2="-10%" y1="120%" x1="30%" id="3d_gradient3-logo-b9fda797-9a39-458e-b729-8f50a77a8257">
    <stop id="stop117097" stop-opacity="1" stop-color="#ffffff" offset="0%"></stop>
    <stop id="stop117099" stop-opacity="1" stop-color="#cccccc" offset="50%"></stop>
    <stop id="stop117101" stop-opacity="1" stop-color="#000000" offset="100%"></stop>
  </linearGradient>
  <g id="logo-group">
    <image xlink:href="" id="container" x="272" y="144" width="480" height="480" style="display: none;" transform="translate(0 0)"></image>
    <g id="logo-center" transform="translate(1.1368683772161603e-13 0)">
      <image xlink:href="" id="icon_container" style="display: none;" x="0" y="0"></image>
      <g id="slogan" style="font-style:normal;font-weight:400;font-size:32px;line-height:1;font-family:Montserrat;font-variant-ligatures:none;text-align:center;text-anchor:middle" transform="translate(0 0)"></g>
      <g id="title" style="font-style:normal;font-weight:700;font-size:72px;line-height:1;font-family:'Comfortaa Bold Alt1';font-variant-ligatures:none;text-align:center;text-anchor:middle" transform="translate(0 0)">
        <path id="path117120" style="font-style:normal;font-weight:700;font-size:72px;line-height:1;font-family:'Comfortaa Bold Alt1';font-variant-ligatures:none;text-align:center;text-anchor:middle" d="m 381.329,-29.88 c -1.584,-3.024 -3.816,-5.4 -6.624,-7.2 -2.808,-1.728 -5.904,-2.592 -9.36,-2.592 -2.808,0 -5.4,0.576 -7.776,1.728 -2.448,1.152 -4.464,2.808 -6.12,4.824 v -19.44 c 0,-1.08 -0.36,-1.944 -1.08,-2.664 -0.72,-0.648 -1.584,-1.008 -2.592,-1.008 -1.152,0 -2.016,0.36 -2.664,1.008 -0.72,0.72 -1.008,1.584 -1.008,2.664 v 32.832 1.296 15.336 c 0,0.936 0.288,1.728 1.008,2.376 0.648,0.72 1.44,1.008 2.448,1.008 h 15.912 0.144 0.288 c 3.672,0 7.056,-0.864 10.08,-2.592 3.024,-1.728 5.4,-4.176 7.2,-7.2 1.728,-3.024 2.592,-6.408 2.592,-10.224 0,-3.672 -0.864,-7.128 -2.448,-10.152 z m -6.336,17.064 c -1.152,2.088 -2.664,3.744 -4.608,4.896 -1.944,1.152 -4.104,1.728 -6.48,1.728 -2.448,0 -4.608,-0.576 -6.552,-1.728 -1.944,-1.152 -3.456,-2.808 -4.536,-4.896 -1.152,-2.016 -1.656,-4.32 -1.656,-6.912 0,-2.52 0.504,-4.824 1.656,-6.84 1.08,-2.016 2.592,-3.672 4.536,-4.824 1.944,-1.152 4.104,-1.8 6.552,-1.8 2.376,0 4.536,0.648 6.48,1.8 1.944,1.152 3.456,2.808 4.608,4.824 1.152,2.016 1.728,4.32 1.728,6.84 0,2.592 -0.576,4.896 -1.728,6.912 z" stroke-width="0" stroke-linejoin="miter" stroke-miterlimit="2" fill="#101010" stroke="#101010" transform="translate(0 312.598) translate(234.26046875000003 35.94200000000001) scale(1.25) translate(-344.105 56.232)"></path>
        <path id="path117122" style="font-style:normal;font-weight:700;font-size:72px;line-height:1;font-family:'Comfortaa Bold Alt1';font-variant-ligatures:none;text-align:center;text-anchor:middle" d="m 422.738,-37.08 c -3.024,-1.728 -6.408,-2.592 -10.152,-2.592 -3.888,0 -7.272,0.864 -10.296,2.592 -3.024,1.728 -5.4,4.032 -7.056,7.056 -1.728,3.024 -2.52,6.48 -2.52,10.368 0,3.888 0.792,7.272 2.52,10.296 1.656,3.024 4.032,5.4 7.056,7.128 3.024,1.728 6.408,2.52 10.296,2.52 3.816,0 7.2,-0.792 10.224,-2.52 3.024,-1.728 5.328,-4.104 7.056,-7.128 1.656,-3.024 2.52,-6.408 2.52,-10.296 0,-3.888 -0.864,-7.344 -2.592,-10.368 -1.728,-3.024 -4.032,-5.328 -7.056,-7.056 z m -16.776,5.616 c 1.944,-1.152 4.176,-1.728 6.624,-1.728 2.448,0 4.608,0.576 6.552,1.728 1.944,1.152 3.456,2.808 4.536,4.824 1.08,2.088 1.656,4.392 1.656,6.984 0,2.592 -0.576,4.968 -1.656,6.984 -1.08,2.016 -2.592,3.6 -4.536,4.752 -1.944,1.152 -4.104,1.728 -6.552,1.728 -2.448,0 -4.68,-0.576 -6.624,-1.728 -1.944,-1.152 -3.456,-2.736 -4.536,-4.752 -1.152,-2.016 -1.656,-4.392 -1.656,-6.984 0,-2.592 0.504,-4.896 1.656,-6.984 1.08,-2.016 2.592,-3.672 4.536,-4.824 z" stroke-width="0" stroke-linejoin="miter" stroke-miterlimit="2" fill="#202424" stroke="#202424" transform="translate(0 312.598) translate(313.77171874999993 56.642) scale(1.25) translate(-392.714 39.672)"></path>
        <path id="path117124" style="font-style:normal;font-weight:700;font-size:72px;line-height:1;font-family:'Comfortaa Bold Alt1';font-variant-ligatures:none;text-align:center;text-anchor:middle" d="m 471.39425,-37.08 c -3.024,-1.728 -6.408,-2.592 -10.152,-2.592 -3.888,0 -7.272,0.864 -10.296,2.592 -3.024,1.728 -5.4,4.032 -7.056,7.056 -1.728,3.024 -2.52,6.48 -2.52,10.368 0,3.888 0.792,7.272 2.52,10.296 1.656,3.024 4.032,5.4 7.056,7.128 3.024,1.728 6.408,2.52 10.296,2.52 3.816,0 7.2,-0.792 10.224,-2.52 3.024,-1.728 5.328,-4.104 7.056,-7.128 1.656,-3.024 2.52,-6.408 2.52,-10.296 0,-3.888 -0.864,-7.344 -2.592,-10.368 -1.728,-3.024 -4.032,-5.328 -7.056,-7.056 z m -16.776,5.616 c 1.944,-1.152 4.176,-1.728 6.624,-1.728 2.448,0 4.608,0.576 6.552,1.728 1.944,1.152 3.456,2.808 4.536,4.824 1.08,2.088 1.656,4.392 1.656,6.984 0,2.592 -0.576,4.968 -1.656,6.984 -1.08,2.016 -2.592,3.6 -4.536,4.752 -1.944,1.152 -4.104,1.728 -6.552,1.728 -2.448,0 -4.68,-0.576 -6.624,-1.728 -1.944,-1.152 -3.456,-2.736 -4.536,-4.752 -1.152,-2.016 -1.656,-4.392 -1.656,-6.984 0,-2.592 0.504,-4.896 1.656,-6.984 1.08,-2.016 2.592,-3.672 4.536,-4.824 z" stroke-width="0" stroke-linejoin="miter" stroke-miterlimit="2" fill="#2f3938" stroke="#2f3938" transform="translate(0 312.598) translate(393.34203124999993 56.642) scale(1.25) translate(-441.37025 39.672)"></path>
        <path id="path117126" style="font-style:normal;font-weight:700;font-size:72px;line-height:1;font-family:'Comfortaa Bold Alt1';font-variant-ligatures:none;text-align:center;text-anchor:middle" d="m 522.5705,-3.024 c 0,-0.864 -0.288,-1.584 -0.792,-2.16 l -13.968,-17.136 13.248,-11.808 c 0.72,-0.576 1.152,-1.44 1.152,-2.448 0,-0.864 -0.36,-1.584 -0.936,-2.232 -0.648,-0.72 -1.44,-1.152 -2.448,-1.152 -0.864,0 -1.656,0.36 -2.232,0.936 l -17.496,15.624 v -29.304 c 0,-1.008 -0.36,-1.872 -1.008,-2.52 -0.648,-0.648 -1.512,-1.008 -2.52,-1.008 -1.08,0 -1.944,0.36 -2.592,1.008 -0.648,0.648 -0.936,1.512 -0.936,2.52 v 49.176 c 0,1.08 0.288,1.944 0.936,2.592 0.648,0.648 1.512,0.936 2.592,0.936 1.008,0 1.872,-0.288 2.52,-0.936 0.648,-0.648 1.008,-1.512 1.008,-2.592 v -11.016 l 3.6,-3.168 13.68,16.92 c 0.648,0.864 1.512,1.296 2.592,1.296 0.792,0 1.584,-0.288 2.304,-0.864 0.864,-0.72 1.296,-1.584 1.296,-2.664 z" stroke-width="0" stroke-linejoin="miter" stroke-miterlimit="2" fill="#3f4d4c" stroke="#3f4d4c" transform="translate(0 312.598) translate(475.43234375 35.94200000000001) scale(1.25) translate(-492.0425 56.232)"></path>
        <path id="path117128" style="font-style:normal;font-weight:700;font-size:72px;line-height:1;font-family:'Comfortaa Bold Alt1';font-variant-ligatures:none;text-align:center;text-anchor:middle" d="m 566.96412,-19.656 c 0,-3.672 -0.93599,-7.128 -2.664,-10.152 -1.72799,-3.024 -4.10399,-5.472 -7.12799,-7.2 -3.024,-1.728 -6.336,-2.664 -10.008,-2.664 -3.74401,0 -7.12801,0.936 -10.15201,2.664 -3.024,1.728 -5.4,4.176 -7.12799,7.2 -1.72801,3.024 -2.592,6.408 -2.592,10.152 0,3.744 0.79199,7.2 2.376,10.224 1.58399,3.024 3.81599,5.4 6.624,7.128 2.88,1.8 5.976,2.664 9.43199,2.664 h 0.576 17.20801 c 0.93599,0 1.728,-0.36 2.448,-1.008 0.64799,-0.648 1.00799,-1.44 1.00799,-2.448 V -3.6 Z m -30.95999,6.912 c -1.15201,-2.016 -1.65601,-4.32 -1.65601,-6.912 0,-2.52 0.504,-4.824 1.65601,-6.912 1.15199,-2.016 2.664,-3.672 4.60799,-4.824 1.944,-1.152 4.10401,-1.8 6.55201,-1.8 2.37599,0 4.53599,0.648 6.48,1.8 1.94399,1.152 3.456,2.808 4.60799,4.824 1.08001,2.088 1.65601,4.392 1.65601,6.912 0,2.592 -0.576,4.896 -1.65601,6.912 -1.15199,2.016 -2.664,3.672 -4.60799,4.824 -1.94401,1.152 -4.10401,1.728 -6.48,1.728 -2.448,0 -4.60801,-0.576 -6.55201,-1.728 -1.94399,-1.152 -3.456,-2.808 -4.60799,-4.824 z" stroke-width="0" stroke-linejoin="miter" stroke-miterlimit="2" fill="#546867" stroke="#546867" transform="translate(0 312.598) translate(538.24438125 56.642) scale(1.25) translate(-527.29213 39.672)"></path>
        <path id="path117130" style="font-style:normal;font-weight:700;font-size:72px;line-height:1;font-family:'Comfortaa Bold Alt1';font-variant-ligatures:none;text-align:center;text-anchor:middle" d="m 615.18837,-29.88 c -1.584,-3.024 -3.81599,-5.4 -6.62399,-7.2 -2.808,-1.728 -5.904,-2.592 -9.36,-2.592 -2.808,0 -5.4,0.576 -7.77601,1.728 -2.448,1.152 -4.46399,2.808 -6.12,4.824 v -19.44 c 0,-1.08 -0.35999,-1.944 -1.07999,-2.664 -0.72001,-0.648 -1.58401,-1.008 -2.592,-1.008 -1.15201,0 -2.01601,0.36 -2.664,1.008 -0.72,0.72 -1.008,1.584 -1.008,2.664 v 32.832 1.296 15.336 c 0,0.936 0.288,1.728 1.008,2.376 0.64799,0.72 1.43999,1.008 2.448,1.008 h 15.91199 0.144 0.288 c 3.672,0 7.05601,-0.864 10.08001,-2.592 3.024,-1.728 5.39999,-4.176 7.19999,-7.2 1.728,-3.024 2.59201,-6.408 2.59201,-10.224 0,-3.672 -0.86401,-7.128 -2.44801,-10.152 z m -6.33599,17.064 c -1.15201,2.088 -2.66401,3.744 -4.60801,4.896 -1.94399,1.152 -4.104,1.728 -6.48,1.728 -2.448,0 -4.60799,-0.576 -6.552,-1.728 -1.944,-1.152 -3.45599,-2.808 -4.536,-4.896 -1.152,-2.016 -1.656,-4.32 -1.656,-6.912 0,-2.52 0.504,-4.824 1.656,-6.84 1.08001,-2.016 2.592,-3.672 4.536,-4.824 1.94401,-1.152 4.104,-1.8 6.552,-1.8 2.376,0 4.53601,0.648 6.48,1.8 1.944,1.152 3.456,2.808 4.60801,4.824 1.15199,2.016 1.72799,4.32 1.72799,6.84 0,2.592 -0.576,4.896 -1.72799,6.912 z" stroke-width="0" stroke-linejoin="miter" stroke-miterlimit="2" fill="#6f8b8a" stroke="#6f8b8a" transform="translate(0 312.598) translate(620.3346937499998 35.94200000000001) scale(1.25) translate(-577.96438 56.232)"></path>
        <path id="path117132" style="font-style:normal;font-weight:700;font-size:72px;line-height:1;font-family:'Comfortaa Bold Alt1';font-variant-ligatures:none;text-align:center;text-anchor:middle" d="m 628.15737,-55.224 c -0.72,0.72 -1.008,1.584 -1.008,2.592 v 39.312 c 0,2.592 0.432,4.896 1.36801,6.912 0.864,2.016 2.15999,3.6 3.816,4.752 1.65599,1.152 3.52799,1.656 5.616,1.656 h 0.144 c 1.43999,0 2.592,-0.288 3.52799,-1.008 0.864,-0.648 1.368,-1.512 1.368,-2.592 0,-1.008 -0.36,-1.872 -0.936,-2.592 -0.57599,-0.648 -1.36799,-1.008 -2.304,-1.008 h -1.79999 c -1.08001,0 -1.94401,-0.576 -2.592,-1.728 -0.72,-1.152 -1.00801,-2.592 -1.00801,-4.392 v -39.312 c 0,-1.008 -0.36,-1.872 -1.008,-2.592 -0.72,-0.648 -1.58399,-1.008 -2.592,-1.008 -1.08,0 -1.94399,0.36 -2.592,1.008 z" stroke-width="0" stroke-linejoin="miter" stroke-miterlimit="2" fill="#8eb2b1" stroke="#8eb2b1" transform="translate(0 312.598) translate(700.5659312499997 35.94200000000001) scale(1.25) translate(-627.14937 56.232)"></path>
        <path id="path117134" style="font-style:normal;font-weight:700;font-size:72px;line-height:1;font-family:'Comfortaa Bold Alt1';font-variant-ligatures:none;text-align:center;text-anchor:middle" d="m 682.55225,-18 c 0.576,-0.576 0.936,-1.368 0.936,-2.304 0,-3.744 -0.72,-7.128 -2.16,-10.08 -1.44,-2.88 -3.528,-5.184 -6.192,-6.84 -2.736,-1.584 -5.904,-2.448 -9.576,-2.448 -3.744,0 -7.128,0.864 -10.08,2.592 -2.952,1.728 -5.256,4.104 -6.912,7.128 -1.656,3.024 -2.448,6.48 -2.448,10.296 0,3.888 0.864,7.272 2.592,10.296 1.728,3.024 4.176,5.4 7.344,7.128 3.096,1.728 6.624,2.52 10.584,2.52 2.16,0 4.464,-0.36 6.912,-1.224 2.448,-0.792 4.464,-1.872 6.12,-3.168 0.72,-0.576 1.152,-1.296 1.152,-2.16 0,-0.864 -0.432,-1.728 -1.296,-2.448 -0.576,-0.432 -1.296,-0.72 -2.16,-0.72 -0.936,0 -1.728,0.288 -2.376,0.792 -1.008,0.792 -2.304,1.44 -3.888,1.944 -1.584,0.576 -3.024,0.792 -4.464,0.792 -3.672,0 -6.768,-1.008 -9.288,-3.096 -2.52,-2.016 -4.032,-4.752 -4.536,-8.136 h 27.36 c 0.936,0 1.728,-0.288 2.376,-0.864 z m -25.56,-12.6 c 2.16,-1.872 5.04,-2.88 8.568,-2.88 3.168,0 5.688,1.008 7.704,2.88 1.944,1.944 3.168,4.536 3.6,7.704 h -23.976 c 0.576,-3.168 1.944,-5.76 4.104,-7.704 z" stroke-width="0" stroke-linejoin="miter" stroke-miterlimit="2" fill="#addbd9" stroke="#addbd9" transform="translate(0 312.598) translate(743.0295312499998 56.642) scale(1.25) translate(-646.12025 39.672)"></path>
      </g>
      <image xlink:href="" id="icon" style="display: none;" x="0" y="0"></image>
    </g>
  </g>
</svg>